<svg width="626" height="581" viewBox="0 0 626 581" fill="none" xmlns="http://www.w3.org/2000/svg">
<g opacity="0.5" filter="url(#filter0_f_784_8961)">
<path d="M565.933 176.871C565.933 144.443 564.724 109.653 544.021 84.7488C541.997 82.309 539.862 79.9634 537.623 77.7194C517.057 57.1806 490.999 48.0644 458.818 43.726C427.515 39.5249 387.563 39.5249 337.095 39.5249H279.103C228.635 39.5249 188.655 39.5249 157.353 43.726C125.172 48.0644 99.1136 57.1806 78.5473 77.7194C58.0085 98.2857 48.8923 124.344 44.5539 156.525C40.3802 187.827 40.3802 227.779 40.3802 278.248V281.323C40.3802 331.791 40.3803 371.771 44.5814 403.046C48.9198 435.227 58.036 461.285 78.5748 481.851C99.1411 502.39 125.199 511.506 157.38 515.845C188.683 520.046 228.635 520.046 279.103 520.046H337.095C387.563 520.046 427.543 520.046 458.818 515.845C490.999 511.506 517.057 502.39 537.623 481.851C543.094 476.364 547.938 470.286 552.066 463.729C564.423 443.959 565.905 419.74 565.905 396.456L561.786 396.483H485.617C423.259 396.483 369.88 348.816 369.88 286.65C369.88 224.484 423.259 176.817 485.617 176.817H561.759C563.187 176.817 564.615 176.817 565.933 176.871Z" fill="#EEE5FF"/>
</g>
<g opacity="0.5" filter="url(#filter1_d_784_8961)">
<path d="M565.552 177.347C565.552 144.918 564.344 110.129 543.641 85.2239C541.617 82.7841 539.482 80.4385 537.243 78.1945C516.677 57.6557 490.619 48.5395 458.438 44.2011C427.135 40 387.183 40 336.715 40H278.723C228.254 40 188.275 40 156.972 44.2011C124.791 48.5395 98.7334 57.6557 78.1671 78.1945C57.6282 98.7608 48.5121 124.819 44.1737 157C40 188.302 40 228.254 40 278.723V281.798C40 332.267 40 372.246 44.2011 403.521C48.5395 435.702 57.6557 461.76 78.1945 482.326C98.7608 502.865 124.819 511.981 157 516.32C188.302 520.521 228.254 520.521 278.723 520.521H336.715C387.183 520.521 427.162 520.521 458.438 516.32C490.619 511.981 516.677 502.865 537.243 482.326C542.713 476.839 547.558 470.761 551.686 464.204C564.042 444.434 565.525 420.216 565.525 396.931L561.406 396.958H485.237C422.879 396.958 369.5 349.291 369.5 287.125C369.5 224.959 422.879 177.292 485.237 177.292H561.379C562.807 177.292 564.234 177.292 565.552 177.347Z" fill="#EEE5FF"/>
</g>
<path d="M143.349 149.358C137.887 149.358 132.649 151.528 128.787 155.39C124.925 159.252 122.755 164.49 122.755 169.952C122.755 175.414 124.925 180.652 128.787 184.514C132.649 188.376 137.887 190.546 143.349 190.546H253.182C258.644 190.546 263.882 188.376 267.744 184.514C271.606 180.652 273.776 175.414 273.776 169.952C273.776 164.49 271.606 159.252 267.744 155.39C263.882 151.528 258.644 149.358 253.182 149.358H143.349Z" fill="#9A66FF"/>
<path fill-rule="evenodd" clip-rule="evenodd" d="M567.251 176.926C565.548 176.817 563.681 176.817 561.759 176.817H485.617C423.259 176.817 369.88 224.484 369.88 286.65C369.88 348.816 423.259 396.483 485.617 396.483H561.759C563.681 396.483 565.548 396.483 567.251 396.373C592.595 394.836 615.001 375.588 616.895 348.678C617.005 346.921 617.005 345.026 617.005 343.269V230.031C617.005 228.274 617.005 226.379 616.895 224.622C615.001 197.712 592.595 178.492 567.251 176.926ZM478.917 315.948C494.953 315.948 507.968 302.823 507.968 286.65C507.968 270.45 494.953 257.352 478.917 257.352C462.854 257.352 449.811 270.477 449.811 286.65C449.811 302.85 462.854 315.948 478.917 315.948Z" fill="#9A66FF"/>
<defs>
<filter id="filter0_f_784_8961" x="39.3802" y="38.5249" width="527.552" height="482.521" filterUnits="userSpaceOnUse" color-interpolation-filters="sRGB">
<feFlood flood-opacity="0" result="BackgroundImageFix"/>
<feBlend mode="normal" in="SourceGraphic" in2="BackgroundImageFix" result="shape"/>
<feGaussianBlur stdDeviation="0.5" result="effect1_foregroundBlur_784_8961"/>
</filter>
<filter id="filter1_d_784_8961" x="0" y="0" width="625.552" height="580.521" filterUnits="userSpaceOnUse" color-interpolation-filters="sRGB">
<feFlood flood-opacity="0" result="BackgroundImageFix"/>
<feColorMatrix in="SourceAlpha" type="matrix" values="0 0 0 0 0 0 0 0 0 0 0 0 0 0 0 0 0 0 127 0" result="hardAlpha"/>
<feOffset dx="10" dy="10"/>
<feGaussianBlur stdDeviation="25"/>
<feComposite in2="hardAlpha" operator="out"/>
<feColorMatrix type="matrix" values="0 0 0 0 0 0 0 0 0 0 0 0 0 0 0 0 0 0 0.3 0"/>
<feBlend mode="normal" in2="BackgroundImageFix" result="effect1_dropShadow_784_8961"/>
<feBlend mode="normal" in="SourceGraphic" in2="effect1_dropShadow_784_8961" result="shape"/>
</filter>
</defs>
</svg>
